<svg width="512" height="512" viewBox="0 0 512 512" fill="none" xmlns="http://www.w3.org/2000/svg">
<rect width="512" height="512" fill="#1E1E1E"/>
<g clip-path="url(#clip0_0_1)">
<circle cx="256" cy="256" r="253" fill="#0F112A" stroke="black" stroke-width="6"/>
<path d="M118.46 269.723C119.367 269.723 121.193 262.471 126.2 240.15C129.593 225.023 135.739 202.419 140.815 185.984C153.472 144.996 160.107 133.768 162.634 130.306C164.837 127.289 167.428 146.913 174.941 173.587C179.571 190.023 188.347 211.594 194.363 223.482C200.379 235.37 204.006 236.73 207.914 237.884C221.647 241.939 233.757 242.692 248.441 243.852C254.408 244.324 270.789 244.999 292.299 245.226C314.346 245.458 338.203 245.466 357.385 244.773C361.571 244.621 362.927 244.093 363.855 243.179C364.782 242.266 365.235 240.906 365.469 221.394C365.702 201.883 365.702 164.261 366.382 146.92C367.062 129.578 368.422 133.658 386.347 173.381C404.272 213.105 438.721 288.349 456.014 325.751C473.307 363.153 472.401 360.434 471.467 357.632" stroke="white" stroke-width="24" stroke-linecap="round"/>
<path d="M80 422.189C83.64 418.11 91.8676 395.322 93.9623 380.563C95.7242 368.149 97.8564 358.126 98.9964 341.499C102.717 287.244 105.164 280.739 109.058 275.465C111.565 273.404 113.872 271.111 115.699 268.37C116.619 266.99 117.526 265.63 119.833 262.855" stroke="white" stroke-width="24" stroke-linecap="round"/>
<path d="M177.523 337.028C183.457 337.028 190.764 336.122 196.733 335.428C199.473 334.748 202.234 334.281 204.974 334.734C206.354 335.188 207.714 336.094 210.489 335.655" stroke="white" stroke-width="24" stroke-linecap="round"/>
<path d="M353.34 327.413C358.353 328.787 365.674 329.693 380.296 329.934C387.665 328.333 392.693 326.96 397.033 326.273C399.107 326.04 400.92 326.04 402.788 326.04" stroke="white" stroke-width="24" stroke-linecap="round"/>
<path d="M264.058 418.069C264.511 418.069 264.965 418.069 267.691 418.069C270.418 418.069 275.404 418.069 278.652 417.842C281.901 417.615 283.261 417.162 284.662 416.695" stroke="white" stroke-width="24" stroke-linecap="round"/>
</g>
<defs>
<clipPath id="clip0_0_1">
<rect width="512" height="512" fill="white"/>
</clipPath>
</defs>
</svg>
